<?xml version="1.0" standalone="no"?>
<!DOCTYPE svg PUBLIC "-//W3C//DTD SVG 20010904//EN"
 "http://www.w3.org/TR/2001/REC-SVG-20010904/DTD/svg10.dtd">
<svg version="1.0" xmlns="http://www.w3.org/2000/svg"
 width="133.000000pt" height="133.000000pt" viewBox="0 0 133.000000 133.000000"
 preserveAspectRatio="xMidYMid meet">
<metadata>
Created by potrace 1.14, written by Peter Selinger 2001-2017
</metadata>
<g transform="translate(0.000000,133.000000) scale(0.100000,-0.100000)"
fill="#000000" stroke="none">
<path d="M444 1301 c-30 -38 -45 -86 -31 -101 9 -9 7 -15 -7 -26 -31 -22 -36
-17 -23 24 27 80 -9 115 -39 37 -13 -36 -15 -51 -6 -70 9 -20 8 -28 -6 -41
-16 -17 -17 -15 -23 38 -9 85 -31 106 -43 42 -8 -39 9 -104 27 -104 6 0 0 -12
-14 -27 -40 -45 -79 -101 -79 -115 -1 -7 -7 1 -14 17 -22 50 -63 83 -99 82
-38 -2 -46 -32 -9 -32 16 0 28 -10 39 -32 8 -18 28 -38 43 -45 25 -11 28 -18
28 -56 0 -34 6 -50 27 -72 37 -38 141 -64 120 -29 -4 5 -13 9 -22 9 -31 0 -81
32 -93 59 -13 32 -6 70 23 119 20 34 21 34 36 14 33 -42 121 -65 121 -32 0 17
-75 60 -105 60 l-30 0 43 42 42 42 29 -17 c18 -10 49 -17 83 -17 l53 1 -28 24
c-16 15 -40 25 -58 25 -31 0 -39 14 -14 24 8 3 30 -4 49 -15 37 -22 106 -23
113 -3 4 11 -38 33 -70 38 -31 4 -30 16 2 16 63 0 137 48 79 51 -51 4 -84 -3
-116 -21 -44 -26 -46 -25 -22 8 46 63 41 142 -6 83z"/>
<path d="M503 1274 c-7 -18 11 -39 26 -30 17 11 13 46 -4 46 -9 0 -18 -7 -22
-16z"/>
<path d="M201 1258 c-10 -26 -5 -35 23 -40 26 -4 44 26 27 46 -19 23 -40 20
-50 -6z"/>
<path d="M1022 1255 c5 -23 1 -29 -29 -41 -19 -8 -42 -28 -51 -44 -13 -22 -22
-28 -39 -24 -40 10 -89 -23 -112 -76 -12 -27 -21 -56 -21 -65 0 -27 24 -11 31
21 15 76 62 106 131 83 42 -14 92 -48 71 -49 -28 0 -74 -112 -51 -126 17 -10
58 46 65 89 l6 39 21 -22 c15 -16 17 -24 8 -27 -21 -8 -42 -60 -42 -105 l1
-43 24 30 c14 16 27 49 31 73 6 39 8 42 22 29 13 -14 13 -19 -2 -50 -18 -39
-23 -132 -6 -122 18 11 47 79 42 100 -4 19 -3 19 14 3 17 -17 17 -19 -4 -57
-23 -40 -30 -105 -12 -116 12 -8 43 40 46 73 4 44 6 40 14 -21 8 -65 34 -103
50 -77 16 24 11 68 -10 110 -22 43 -19 47 20 25 31 -18 80 -19 80 -2 0 20 -68
60 -105 61 -19 1 -40 7 -47 14 -14 14 -4 15 37 3 30 -8 75 1 75 16 0 18 -49
37 -99 38 -62 1 -88 25 -27 25 36 0 86 18 86 30 0 9 -37 20 -68 20 -13 0 -37
-7 -54 -16 -27 -14 -32 -14 -45 -1 -13 13 -10 15 24 22 39 7 93 34 93 46 0 4
-11 9 -24 11 -32 6 -94 -15 -111 -38 -11 -16 -15 -16 -30 -4 -15 12 -12 15 32
32 44 16 82 52 69 65 -12 13 -77 -10 -106 -37 -34 -32 -45 -36 -55 -21 -3 6
10 17 29 26 43 20 63 51 62 90 -1 21 -7 31 -20 33 -15 3 -18 -1 -14 -23z"/>
<path d="M882 1218 c-17 -17 -15 -45 4 -52 25 -10 33 -7 44 13 7 15 6 23 -6
35 -19 19 -26 20 -42 4z"/>
<path d="M199 1172 c-1 -12 -2 -28 -3 -34 -3 -17 19 -61 37 -76 38 -32 25 79
-13 113 -19 18 -20 17 -21 -3z"/>
<path d="M1225 1126 c-14 -10 -15 -16 -6 -34 13 -25 31 -28 49 -10 29 29 -9
69 -43 44z"/>
<path d="M140 1109 c0 -44 60 -124 74 -100 9 14 -13 76 -34 99 -26 28 -40 28
-40 1z"/>
<path d="M915 1067 c-26 -40 -39 -87 -27 -99 22 -22 72 49 72 102 0 27 -26 25
-45 -3z"/>
<path d="M320 1055 c0 -26 60 -49 119 -46 21 1 22 3 10 18 -31 36 -129 58
-129 28z"/>
<path d="M837 1053 c-14 -13 -7 -33 11 -33 26 0 34 11 21 27 -13 14 -22 16
-32 6z"/>
<path d="M242 945 c6 -36 115 -77 125 -49 6 17 -51 54 -93 61 -31 5 -36 3 -32
-12z"/>
<path d="M116 924 c-20 -19 -20 -28 -1 -44 33 -27 74 17 43 48 -16 16 -23 15
-42 -4z"/>
<path d="M665 876 c-76 -33 -130 -148 -123 -262 5 -78 27 -126 65 -143 37 -17
78 -13 98 9 23 26 34 25 32 -1 -1 -13 -13 -25 -33 -34 -40 -16 -74 -60 -74
-96 0 -31 40 -69 72 -69 30 0 65 43 73 90 5 29 13 44 25 47 37 10 36 53 -1 53
-17 0 -19 8 -19 94 0 75 -3 95 -15 100 -18 6 -30 -18 -40 -75 -7 -44 -44 -82
-77 -77 -82 11 -72 225 15 306 29 28 79 27 83 0 4 -30 -34 -68 -67 -68 -26 0
-30 -3 -27 -22 6 -47 97 -21 128 37 46 85 -23 151 -115 111z m65 -492 c0 -27
-20 -54 -35 -47 -11 3 -13 12 -9 27 11 34 44 49 44 20z"/>
<path d="M272 853 c5 -26 38 -29 38 -4 0 15 -6 21 -21 21 -14 0 -19 -5 -17
-17z"/>
<path d="M1247 824 c-11 -11 5 -34 24 -34 12 0 19 7 19 20 0 19 -28 28 -43 14z"/>
<path d="M98 588 c-4 -59 -2 -75 16 -106 21 -37 15 -53 -11 -29 -10 8 -36 19
-57 23 -35 6 -38 5 -33 -10 4 -10 7 -19 7 -22 0 -11 79 -41 101 -37 15 2 32
-3 39 -12 17 -21 7 -29 -19 -15 -28 15 -91 10 -91 -8 0 -20 69 -45 111 -39 21
3 42 0 48 -6 18 -18 13 -24 -18 -19 -32 4 -101 -14 -101 -28 0 -22 63 -26 122
-8 33 10 41 9 56 -5 15 -16 14 -17 -23 -17 -47 0 -113 -36 -97 -52 14 -14 86
0 116 23 30 24 39 24 60 0 10 -11 28 -21 40 -23 18 -3 16 -6 -15 -20 -20 -8
-44 -27 -55 -41 -26 -32 -26 -80 0 -85 15 -3 18 1 14 21 -4 21 0 28 24 38 15
6 39 24 51 39 16 18 36 29 65 33 62 8 90 38 107 115 5 25 3 32 -9 32 -9 0 -16
-8 -16 -20 0 -29 -27 -78 -49 -90 -22 -11 -61 -13 -86 -4 -14 6 -13 10 10 34
28 29 47 90 36 109 -15 23 -71 -59 -71 -103 0 -29 -3 -31 -29 -14 -18 11 -18
13 9 47 32 41 44 96 20 96 -19 0 -60 -62 -60 -92 0 -32 -16 -26 -54 20 -29 37
-30 38 -13 66 18 30 24 121 8 121 -12 0 -41 -63 -41 -89 0 -12 -4 -21 -9 -21
-14 0 -25 41 -14 49 29 18 46 122 23 136 -13 8 -48 -65 -44 -93 3 -14 0 -21
-6 -17 -5 3 -10 24 -10 46 0 65 -47 135 -52 77z"/>
<path d="M1003 553 c-23 -8 -14 -21 19 -29 66 -14 100 -57 91 -113 -5 -35 -7
-35 -38 -7 -49 46 -128 54 -112 13 7 -19 94 -60 112 -53 18 6 20 -15 3 -32 -8
-8 -15 -7 -27 7 -21 24 -49 38 -88 44 -27 4 -33 2 -33 -13 0 -22 56 -59 94
-62 18 -2 25 -7 21 -16 -3 -8 -5 -16 -5 -18 0 -2 -7 -4 -15 -4 -8 0 -15 4 -15
10 0 21 -69 44 -122 41 -55 -3 27 -61 87 -61 37 0 38 -1 22 -17 -16 -16 -19
-16 -52 0 -36 17 -106 23 -119 10 -3 -4 6 -17 21 -30 23 -20 24 -22 5 -13 -28
14 -94 9 -99 -7 -5 -14 30 -34 77 -44 l35 -7 -43 -1 c-86 -2 -146 -61 -62 -61
31 0 38 -3 34 -15 -9 -24 3 -45 22 -38 11 4 14 14 10 33 -4 22 0 29 20 38 28
13 28 15 11 -34 -14 -40 -12 -74 3 -74 22 0 65 74 65 111 0 22 5 41 12 43 9 4
11 -3 7 -22 -18 -90 0 -118 37 -59 15 24 19 43 15 79 -3 33 -1 48 8 51 9 4 13
-3 11 -22 -2 -30 22 -101 35 -101 18 0 22 86 6 125 -15 35 -15 40 -1 54 13 14
15 13 15 -9 1 -38 37 -110 55 -110 23 0 13 74 -14 111 -22 30 -27 54 -12 63 5
3 12 -10 15 -29 8 -42 54 -101 69 -86 17 17 -2 76 -34 109 -21 21 -29 37 -25
49 6 14 9 12 22 -13 28 -53 55 -74 96 -74 32 0 38 3 38 21 0 17 -5 20 -25 17
-21 -4 -28 1 -42 29 -9 19 -27 40 -40 46 -12 5 -23 15 -24 21 -4 75 -18 104
-63 128 -28 15 -69 25 -83 21z m-63 -354 c0 -11 -38 -21 -50 -14 -19 11 -10
20 20 20 17 1 30 -2 30 -6z"/>
<path d="M47 534 c-14 -15 -6 -34 14 -34 14 0 19 5 17 17 -3 18 -20 27 -31 17z"/>
<path d="M1017 487 c-3 -8 -2 -20 3 -27 11 -18 42 -4 38 17 -4 22 -34 29 -41
10z"/>
<path d="M1170 445 c-6 -8 -9 -23 -5 -35 9 -27 51 -27 60 0 7 23 -10 50 -30
50 -7 0 -18 -7 -25 -15z"/>
<path d="M281 407 c-22 -45 -27 -82 -12 -91 21 -13 60 68 53 112 -5 33 -18 27
-41 -21z"/>
<path d="M460 291 c0 -15 6 -21 21 -21 14 0 19 5 17 17 -5 26 -38 29 -38 4z"/>
<path d="M73 249 c-27 -10 -30 -31 -7 -50 11 -9 20 -10 32 -3 22 14 25 27 10
46 -10 12 -19 14 -35 7z"/>
<path d="M270 203 c-37 -15 -70 -41 -70 -55 0 -29 116 15 127 48 6 19 -21 23
-57 7z"/>
<path d="M404 153 c-17 -17 -15 -32 8 -46 23 -15 48 -1 48 27 0 29 -34 41 -56
19z"/>
<path d="M1085 103 c-20 -19 -16 -47 8 -51 25 -5 46 15 40 38 -7 26 -29 32
-48 13z"/>
</g>
</svg>
