<svg width="1920" height="1080" viewBox="0 0 1920 1080" fill="none" xmlns="http://www.w3.org/2000/svg">
<rect width="1920" height="1080" fill="white"/>
<g clip-path="url(#clip0)">
<path opacity="0.2" d="M-63.3737 1903.76C210.603 1256.98 1087.19 811.508 1329.77 738.856C1494.35 689.563 1796.49 709.609 1879.29 766.132C1879.29 922.845 1879.29 1900.86 1879.29 1900.86C1315.51 1901.82 429.558 1903.76 -63.3737 1903.76Z" fill="#43F169"/>
<path opacity="0.075" d="M21.7337 2009.89C206.3 2009.89 1548.96 2012.94 1919.59 2012.94C1919.59 1849.39 1919.59 1476.29 1919.59 1371.85C1919.59 1221.39 2280.9 537.77 1351.52 720.336C891.616 810.676 634.413 1309.58 397.438 1394.74C209.033 1462.45 -17.919 1663.39 21.7337 2009.89Z" fill="#43F169"/>
<path opacity="0.3" fill-rule="evenodd" clip-rule="evenodd" d="M986.238 794.688C989.953 793.967 993.299 798.662 993.711 805.178C994.122 811.694 991.445 817.562 987.73 818.284C984.015 819.006 980.67 814.311 980.259 807.795C979.846 801.278 982.524 795.41 986.238 794.688Z" stroke="#43F169"/>
<path opacity="0.3" fill-rule="evenodd" clip-rule="evenodd" d="M872.99 819.712C875.785 819.169 878.3 822.701 878.61 827.6C878.92 832.5 876.906 836.914 874.113 837.457C871.32 838.001 868.804 834.468 868.494 829.569C868.183 824.668 870.197 820.255 872.99 819.712Z" stroke="#43F169"/>
<path opacity="0.3" fill-rule="evenodd" clip-rule="evenodd" d="M1284.86 767.915C1289.84 766.943 1294.33 773.248 1294.89 781.99C1295.44 790.735 1291.85 798.608 1286.86 799.577C1281.88 800.546 1277.39 794.245 1276.83 785.502C1276.28 776.757 1279.87 768.884 1284.86 767.915Z" stroke="#43F169"/>
<path opacity="0.3" fill-rule="evenodd" clip-rule="evenodd" d="M737.072 953.773C743.441 952.536 749.176 960.586 749.881 971.756C750.588 982.927 745.997 992.985 739.63 994.222C733.261 995.461 727.526 987.41 726.819 976.242C726.114 965.072 730.705 955.013 737.072 953.773Z" stroke="#43F169"/>
<path opacity="0.3" fill-rule="evenodd" clip-rule="evenodd" d="M1178.98 815.634C1187.03 814.068 1194.28 824.252 1195.18 838.378C1196.07 852.504 1190.26 865.226 1182.21 866.791C1174.16 868.36 1166.9 858.176 1166.01 844.05C1165.12 829.924 1170.92 817.203 1178.98 815.634Z" stroke="#43F169"/>
<path opacity="0.3" fill-rule="evenodd" clip-rule="evenodd" d="M918.312 841.612C928.183 839.692 937.071 852.17 938.166 869.485C939.261 886.796 932.147 902.386 922.275 904.307C912.405 906.227 903.516 893.749 902.421 876.434C901.326 859.123 908.441 843.53 918.312 841.612Z" stroke="#43F169"/>
<path opacity="0.3" fill-rule="evenodd" clip-rule="evenodd" d="M1342.2 806.165C1353.65 803.938 1363.96 818.414 1365.23 838.501C1366.51 858.587 1358.25 876.674 1346.79 878.9C1335.34 881.127 1325.03 866.651 1323.76 846.565C1322.49 826.481 1330.74 808.391 1342.2 806.165Z" stroke="#43F169"/>
<path opacity="0.3" fill-rule="evenodd" clip-rule="evenodd" d="M1041.59 824.084C1061.33 820.245 1079.11 845.203 1081.3 879.829C1083.49 914.455 1069.26 945.635 1049.52 949.476C1029.78 953.314 1012 928.357 1009.81 893.731C1007.62 859.105 1021.85 827.924 1041.59 824.084Z" stroke="#43F169"/>
<path opacity="0.3" fill-rule="evenodd" clip-rule="evenodd" d="M825.538 945.949C845.28 942.111 863.058 967.069 865.247 1001.69C867.435 1036.32 853.207 1067.5 833.465 1071.34C813.723 1075.18 795.944 1050.22 793.756 1015.6C791.567 980.97 805.796 949.79 825.538 945.949Z" stroke="#43F169"/>
<path opacity="0.3" d="M-97.8941 2089.49C293.776 1290.2 949.878 766.132 1693.16 766.132C2435.4 766.132 3090.56 1290.2 3481.68 2089.49H-97.8941Z" fill="#43F169"/>
<path d="M-77.5361 2102.42C314.134 1303.13 970.236 779.06 1713.52 779.06C2455.76 779.06 3110.92 1303.13 3502.04 2102.42H-77.5361Z" fill="#43F169"/>
</g>
<defs>
<clipPath id="clip0">
<rect width="1409" height="380" fill="white" transform="matrix(-1 0 0 1 1920 700)"/>
</clipPath>
</defs>
</svg>
