<svg width="1920" height="1080" viewBox="0 0 1920 1080" fill="none" xmlns="http://www.w3.org/2000/svg">
<rect width="1920" height="1080" fill="white"/>
<g clip-path="url(#clip0)">
<path opacity="0.2" d="M548.827 1365C742.209 1111.39 1360.92 936.723 1532.14 908.236C1648.3 888.908 1861.56 896.768 1920 918.931C1920 980.379 1920 1363.86 1920 1363.86C1522.08 1364.24 896.754 1365 548.827 1365Z" fill="url(#paint0_linear)"/>
<path opacity="0.075" d="M608.903 1406.62C739.172 1406.62 1686.85 1407.81 1948.45 1407.81C1948.45 1343.68 1948.45 1197.39 1948.45 1156.43C1948.45 1097.44 2203.47 829.389 1547.49 900.974C1222.88 936.397 1041.34 1132.02 874.084 1165.41C741.102 1191.96 580.916 1270.75 608.903 1406.62Z" fill="url(#paint1_linear)"/>
<path opacity="0.3" fill-rule="evenodd" clip-rule="evenodd" d="M1289.67 930.128C1292.29 929.845 1294.65 931.686 1294.94 934.241C1295.23 936.796 1293.34 939.097 1290.72 939.38C1288.1 939.663 1285.74 937.822 1285.45 935.267C1285.16 932.712 1287.05 930.411 1289.67 930.128Z" stroke="url(#paint2_linear)"/>
<path opacity="0.3" fill-rule="evenodd" clip-rule="evenodd" d="M1209.74 939.94C1211.71 939.727 1213.48 941.112 1213.7 943.033C1213.92 944.954 1212.5 946.685 1210.53 946.898C1208.56 947.111 1206.78 945.726 1206.56 943.805C1206.34 941.883 1207.76 940.153 1209.74 939.94Z" stroke="url(#paint3_linear)"/>
<path opacity="0.3" fill-rule="evenodd" clip-rule="evenodd" d="M1500.44 919.63C1503.96 919.249 1507.13 921.721 1507.52 925.149C1507.91 928.578 1505.37 931.665 1501.85 932.045C1498.34 932.425 1495.17 929.954 1494.78 926.526C1494.39 923.097 1496.92 920.01 1500.44 919.63Z" stroke="url(#paint4_linear)"/>
<path opacity="0.3" fill-rule="evenodd" clip-rule="evenodd" d="M1113.8 992.506C1118.3 992.021 1122.35 995.177 1122.84 999.557C1123.34 1003.94 1120.1 1007.88 1115.61 1008.37C1111.11 1008.85 1107.06 1005.7 1106.57 1001.32C1106.07 996.936 1109.31 992.992 1113.8 992.506Z" stroke="url(#paint5_linear)"/>
<path opacity="0.3" fill-rule="evenodd" clip-rule="evenodd" d="M1425.71 938.341C1431.39 937.727 1436.51 941.72 1437.14 947.259C1437.77 952.798 1433.67 957.786 1427.99 958.4C1422.3 959.015 1417.18 955.022 1416.55 949.483C1415.92 943.944 1420.02 938.956 1425.71 938.341Z" stroke="url(#paint6_linear)"/>
<path opacity="0.3" fill-rule="evenodd" clip-rule="evenodd" d="M1241.73 948.527C1248.69 947.774 1254.97 952.667 1255.74 959.456C1256.51 966.244 1251.49 972.357 1244.52 973.11C1237.56 973.863 1231.28 968.97 1230.51 962.181C1229.74 955.393 1234.76 949.279 1241.73 948.527Z" stroke="url(#paint7_linear)"/>
<path opacity="0.3" fill-rule="evenodd" clip-rule="evenodd" d="M1540.91 934.628C1549 933.755 1556.27 939.431 1557.17 947.307C1558.07 955.183 1552.24 962.275 1544.15 963.148C1536.07 964.021 1528.79 958.345 1527.9 950.469C1527 942.594 1532.83 935.501 1540.91 934.628Z" stroke="url(#paint8_linear)"/>
<path opacity="0.3" fill-rule="evenodd" clip-rule="evenodd" d="M1328.74 941.654C1342.67 940.149 1355.22 949.935 1356.77 963.512C1358.31 977.089 1348.27 989.315 1334.33 990.821C1320.4 992.326 1307.85 982.54 1306.31 968.963C1304.76 955.386 1314.8 943.16 1328.74 941.654Z" stroke="url(#paint9_linear)"/>
<path opacity="0.3" fill-rule="evenodd" clip-rule="evenodd" d="M1176.24 989.438C1190.18 987.933 1202.73 997.719 1204.27 1011.3C1205.82 1024.87 1195.77 1037.1 1181.84 1038.6C1167.9 1040.11 1155.36 1030.32 1153.81 1016.75C1152.27 1003.17 1162.31 990.944 1176.24 989.438Z" stroke="url(#paint10_linear)"/>
<path opacity="0.3" fill-rule="evenodd" clip-rule="evenodd" d="M906.459 1067.42C908.859 1066.36 911.692 1067.39 912.785 1069.73C913.878 1072.07 912.818 1074.83 910.417 1075.89C908.017 1076.96 905.184 1075.92 904.091 1073.59C902.997 1071.25 904.057 1068.49 906.459 1067.42Z" stroke="url(#paint11_linear)"/>
<path opacity="0.3" fill-rule="evenodd" clip-rule="evenodd" d="M1014.76 1045.67C1018.88 1043.84 1023.73 1045.62 1025.61 1049.63C1027.48 1053.64 1025.66 1058.37 1021.55 1060.19C1017.43 1062.02 1012.58 1060.25 1010.7 1056.24C1008.83 1052.23 1010.65 1047.5 1014.76 1045.67Z" stroke="url(#paint12_linear)"/>
<path opacity="0.3" fill-rule="evenodd" clip-rule="evenodd" d="M957.332 1054.35C964.192 1051.3 972.286 1054.25 975.409 1060.94C978.533 1067.62 975.503 1075.51 968.644 1078.55C961.784 1081.6 953.691 1078.64 950.568 1071.96C947.444 1065.28 950.473 1057.39 957.332 1054.35Z" stroke="url(#paint13_linear)"/>
<path opacity="0.3" fill-rule="evenodd" clip-rule="evenodd" d="M1058.59 1049.61C1069.22 1044.89 1081.76 1049.46 1086.61 1059.82C1091.45 1070.18 1086.75 1082.4 1076.12 1087.12C1065.49 1091.84 1052.94 1087.26 1048.1 1076.9C1043.26 1066.55 1047.95 1054.32 1058.59 1049.61Z" stroke="url(#paint14_linear)"/>
<path opacity="0.3" d="M524.464 1437.83C800.916 1124.42 1264.01 918.931 1788.63 918.931C2312.51 918.931 2774.94 1124.42 3051 1437.83L524.464 1437.83Z" fill="url(#paint15_linear)"/>
<path d="M538.832 1442.9C815.284 1129.49 1278.37 924 1803 924C2326.88 924 2789.31 1129.49 3065.37 1442.9L538.832 1442.9Z" fill="url(#paint16_linear)"/>
</g>
<defs>
<linearGradient id="paint0_linear" x1="1234.41" y1="1365" x2="1234.41" y2="897.264" gradientUnits="userSpaceOnUse">
<stop stop-color="#43F649"/>
<stop offset="0.807292" stop-color="#43F649"/>
<stop offset="1" stop-color="#087CFA"/>
</linearGradient>
<linearGradient id="paint1_linear" x1="1301.46" y1="1407.81" x2="1301.46" y2="888.916" gradientUnits="userSpaceOnUse">
<stop stop-color="#43F649"/>
<stop offset="0.807292" stop-color="#43F649"/>
<stop offset="1" stop-color="#087CFA"/>
</linearGradient>
<linearGradient id="paint2_linear" x1="1290.2" y1="939.409" x2="1290.2" y2="930.099" gradientUnits="userSpaceOnUse">
<stop stop-color="#43F649"/>
<stop offset="0.807292" stop-color="#43F649"/>
<stop offset="1" stop-color="#087CFA"/>
</linearGradient>
<linearGradient id="paint3_linear" x1="1210.13" y1="946.92" x2="1210.13" y2="939.918" gradientUnits="userSpaceOnUse">
<stop stop-color="#43F649"/>
<stop offset="0.807292" stop-color="#43F649"/>
<stop offset="1" stop-color="#087CFA"/>
</linearGradient>
<linearGradient id="paint4_linear" x1="1501.15" y1="932.084" x2="1501.15" y2="919.591" gradientUnits="userSpaceOnUse">
<stop stop-color="#43F649"/>
<stop offset="0.807292" stop-color="#43F649"/>
<stop offset="1" stop-color="#087CFA"/>
</linearGradient>
<linearGradient id="paint5_linear" x1="1114.7" y1="1008.42" x2="1114.7" y2="992.457" gradientUnits="userSpaceOnUse">
<stop stop-color="#43F649"/>
<stop offset="0.807292" stop-color="#43F649"/>
<stop offset="1" stop-color="#087CFA"/>
</linearGradient>
<linearGradient id="paint6_linear" x1="1426.85" y1="958.462" x2="1426.85" y2="938.279" gradientUnits="userSpaceOnUse">
<stop stop-color="#43F649"/>
<stop offset="0.807292" stop-color="#43F649"/>
<stop offset="1" stop-color="#087CFA"/>
</linearGradient>
<linearGradient id="paint7_linear" x1="1243.12" y1="973.186" x2="1243.12" y2="948.451" gradientUnits="userSpaceOnUse">
<stop stop-color="#43F649"/>
<stop offset="0.807292" stop-color="#43F649"/>
<stop offset="1" stop-color="#087CFA"/>
</linearGradient>
<linearGradient id="paint8_linear" x1="1542.53" y1="963.237" x2="1542.53" y2="934.539" gradientUnits="userSpaceOnUse">
<stop stop-color="#43F649"/>
<stop offset="0.807292" stop-color="#43F649"/>
<stop offset="1" stop-color="#087CFA"/>
</linearGradient>
<linearGradient id="paint9_linear" x1="1331.54" y1="990.974" x2="1331.54" y2="941.501" gradientUnits="userSpaceOnUse">
<stop stop-color="#43F649"/>
<stop offset="0.807292" stop-color="#43F649"/>
<stop offset="1" stop-color="#087CFA"/>
</linearGradient>
<linearGradient id="paint10_linear" x1="1179.04" y1="1038.76" x2="1179.04" y2="989.285" gradientUnits="userSpaceOnUse">
<stop stop-color="#43F649"/>
<stop offset="0.807292" stop-color="#43F649"/>
<stop offset="1" stop-color="#087CFA"/>
</linearGradient>
<linearGradient id="paint11_linear" x1="908.438" y1="1076.31" x2="908.438" y2="1067" gradientUnits="userSpaceOnUse">
<stop stop-color="#43F649"/>
<stop offset="0.807292" stop-color="#43F649"/>
<stop offset="1" stop-color="#087CFA"/>
</linearGradient>
<linearGradient id="paint12_linear" x1="1018.15" y1="1060.91" x2="1018.15" y2="1044.95" gradientUnits="userSpaceOnUse">
<stop stop-color="#43F649"/>
<stop offset="0.807292" stop-color="#43F649"/>
<stop offset="1" stop-color="#087CFA"/>
</linearGradient>
<linearGradient id="paint13_linear" x1="962.988" y1="1079.75" x2="962.988" y2="1053.15" gradientUnits="userSpaceOnUse">
<stop stop-color="#43F649"/>
<stop offset="0.807292" stop-color="#43F649"/>
<stop offset="1" stop-color="#087CFA"/>
</linearGradient>
<linearGradient id="paint14_linear" x1="1067.35" y1="1088.98" x2="1067.35" y2="1047.75" gradientUnits="userSpaceOnUse">
<stop stop-color="#43F649"/>
<stop offset="0.807292" stop-color="#43F649"/>
<stop offset="1" stop-color="#087CFA"/>
</linearGradient>
<linearGradient id="paint15_linear" x1="1787.73" y1="1437.83" x2="1787.73" y2="918.931" gradientUnits="userSpaceOnUse">
<stop stop-color="#43F649"/>
<stop offset="0.807292" stop-color="#43F649"/>
<stop offset="1" stop-color="#087CFA"/>
</linearGradient>
<linearGradient id="paint16_linear" x1="1802.1" y1="1442.9" x2="1802.1" y2="924" gradientUnits="userSpaceOnUse">
<stop stop-color="#43F649"/>
<stop offset="0.807292" stop-color="#43F649"/>
<stop offset="1" stop-color="#087CFA"/>
</linearGradient>
<clipPath id="clip0">
<rect width="1404" height="472" fill="white" transform="matrix(1 0 0 -1 516 1365)"/>
</clipPath>
</defs>
</svg>
