<svg width="969" height="149" viewBox="0 0 969 149" fill="none" xmlns="http://www.w3.org/2000/svg">
<g clip-path="url(#clip0)">
<path opacity="0.2" d="M1364.01 471.999C1175.59 218.394 572.744 43.7228 405.918 15.2358C292.73 -4.09224 84.9402 3.76777 28.0002 25.9308C28.0002 87.3788 28.0002 470.862 28.0002 470.862C415.72 471.238 1025.01 472 1364.01 471.999Z" fill="#43F169"/>
<path opacity="0.075" d="M1305.48 513.616C1178.55 513.616 255.17 514.81 0.280168 514.81C0.280168 450.683 0.280168 304.387 0.280168 263.434C0.280168 204.438 -248.2 -63.6112 390.96 7.97377C707.243 43.3968 884.127 239.018 1047.1 272.412C1176.67 298.962 1332.75 377.749 1305.48 513.616Z" fill="#43F169"/>
<path opacity="0.3" fill-rule="evenodd" clip-rule="evenodd" d="M642.169 37.1278C639.614 36.8448 637.313 38.6858 637.03 41.2408C636.747 43.7958 638.588 46.0968 641.143 46.3798C643.698 46.6628 645.998 44.8218 646.281 42.2668C646.565 39.7118 644.723 37.4108 642.169 37.1278Z" stroke="#43F169"/>
<path opacity="0.3" fill-rule="evenodd" clip-rule="evenodd" d="M720.052 46.9398C718.13 46.7268 716.4 48.1118 716.187 50.0328C715.974 51.9538 717.359 53.6848 719.28 53.8978C721.201 54.1108 722.931 52.7258 723.144 50.8048C723.358 48.8828 721.973 47.1528 720.052 46.9398Z" stroke="#43F169"/>
<path opacity="0.3" fill-rule="evenodd" clip-rule="evenodd" d="M436.801 26.6298C433.372 26.2488 430.285 28.7208 429.904 32.1488C429.524 35.5778 431.996 38.6648 435.424 39.0448C438.852 39.4248 441.94 36.9538 442.32 33.5258C442.7 30.0968 440.229 27.0098 436.801 26.6298Z" stroke="#43F169"/>
<path opacity="0.3" fill-rule="evenodd" clip-rule="evenodd" d="M813.526 99.5058C809.146 99.0208 805.202 102.177 804.717 106.557C804.231 110.937 807.388 114.881 811.767 115.366C816.147 115.852 820.091 112.695 820.577 108.316C821.062 103.936 817.905 99.9918 813.526 99.5058Z" stroke="#43F169"/>
<path opacity="0.3" fill-rule="evenodd" clip-rule="evenodd" d="M509.619 45.3408C504.08 44.7268 499.092 48.7198 498.478 54.2588C497.864 59.7978 501.856 64.7858 507.395 65.3998C512.934 66.0148 517.923 62.0218 518.537 56.4828C519.151 50.9438 515.159 45.9558 509.619 45.3408Z" stroke="#43F169"/>
<path opacity="0.3" fill-rule="evenodd" clip-rule="evenodd" d="M688.883 55.5268C682.095 54.7738 675.982 59.6668 675.229 66.4558C674.476 73.2438 679.369 79.3568 686.158 80.1098C692.946 80.8628 699.059 75.9698 699.812 69.1808C700.565 62.3928 695.672 56.2788 688.883 55.5268Z" stroke="#43F169"/>
<path opacity="0.3" fill-rule="evenodd" clip-rule="evenodd" d="M397.369 41.6278C389.49 40.7548 382.4 46.4308 381.53 54.3068C380.65 62.1828 386.33 69.2748 394.21 70.1478C402.082 71.0208 409.175 65.3448 410.048 57.4688C410.921 49.5938 405.245 42.5008 397.369 41.6278Z" stroke="#43F169"/>
<path opacity="0.3" fill-rule="evenodd" clip-rule="evenodd" d="M604.102 48.6538C590.525 47.1488 578.298 56.9348 576.793 70.5118C575.288 84.0888 585.073 96.3148 598.65 97.8208C612.227 99.3258 624.454 89.5398 625.959 75.9628C627.464 62.3858 617.679 50.1598 604.102 48.6538Z" stroke="#43F169"/>
<path opacity="0.3" fill-rule="evenodd" clip-rule="evenodd" d="M752.686 96.4378C739.109 94.9328 726.882 104.719 725.377 118.296C723.872 131.873 733.657 144.099 747.234 145.605C760.811 147.11 773.038 137.324 774.543 123.747C776.048 110.17 766.263 97.9438 752.686 96.4378Z" stroke="#43F169"/>
<path opacity="0.3" d="M1387.75 544.827C1118.39 231.42 667.174 25.9308 156 25.9308C-354.45 25.9308 -805.02 231.42 -1074 544.827L1387.75 544.827Z" fill="#43F169"/>
<path d="M1373.75 549.897C1104.39 236.489 653.174 31 142 31C-368.45 31 -819.02 236.489 -1088 549.897L1373.75 549.897Z" fill="#43F169"/>
</g>
<defs>
<clipPath id="clip0">
<rect width="1368" height="472" fill="white" transform="translate(1396 472) rotate(180)"/>
</clipPath>
</defs>
</svg>
