<svg width="985" height="644" viewBox="0 0 985 644" fill="none" xmlns="http://www.w3.org/2000/svg">
<g clip-path="url(#clip0)">
<path d="M50.4712 595.872C54.4581 597.302 58.7508 597.66 62.9195 596.909C67.0881 596.159 70.9864 594.326 74.2239 591.595C82.5434 584.456 85.1518 572.696 87.2742 561.806C89.3668 551.07 91.4593 540.333 93.5518 529.597L80.409 538.848C70.9576 545.501 61.2931 552.367 54.749 562.004C48.2049 571.64 45.3484 584.795 50.6064 595.222" fill="#E6E6E6"/>
<path d="M51.5945 634.868C50.2643 624.963 48.8965 614.93 49.8295 604.919C50.6582 596.027 53.3117 587.343 58.7138 580.222C61.5679 576.462 65.0573 573.23 69.0243 570.671C70.0553 570.006 71.0043 571.676 69.9777 572.339C63.1007 576.803 57.8112 583.327 54.8658 590.979C51.5757 599.534 51.0474 608.859 51.6144 617.947C51.9572 623.442 52.6839 628.902 53.4161 634.354C53.4751 634.599 53.44 634.857 53.3178 635.077C53.1956 635.297 52.9953 635.463 52.7564 635.542C52.6359 635.574 52.5101 635.583 52.3863 635.566C52.2626 635.55 52.1433 635.509 52.0354 635.446C51.9274 635.384 51.8329 635.3 51.7573 635.201C51.6816 635.102 51.6263 634.989 51.5945 634.868L51.5945 634.868Z" fill="#F2F2F2"/>
<path d="M64.407 617.34C66.0863 619.979 68.4246 622.135 71.1913 623.595C73.9579 625.055 77.0573 625.768 80.1838 625.664C88.1703 625.277 94.8284 619.579 100.822 614.169L118.55 598.167L106.817 597.593C98.3794 597.181 89.724 596.796 81.6875 599.456C73.651 602.116 66.2392 608.517 64.7697 617.021" fill="#E6E6E6"/>
<path d="M47.8352 640.562C54.2378 628.981 61.6642 616.109 74.9339 611.995C78.6187 610.856 82.4906 610.447 86.332 610.792C87.5422 610.899 87.2401 612.806 86.0321 612.699C79.5797 612.158 73.142 613.899 67.8424 617.619C62.7136 621.188 58.7203 626.149 55.3404 631.411C53.2701 634.634 51.4157 637.993 49.5609 641.348C48.9681 642.421 47.2355 641.647 47.8352 640.562L47.8352 640.562Z" fill="#F2F2F2"/>
<path d="M387.974 294.405C389.461 297.479 389.687 301.012 388.605 304.25C387.523 307.489 385.217 310.175 382.181 311.737C381.559 312.044 380.913 312.299 380.249 312.499L378.082 358.199L359.309 344.164L364.245 302.918C363.617 300.102 363.941 297.156 365.168 294.544C366.394 291.931 368.452 289.8 371.02 288.483C372.518 287.737 374.151 287.299 375.821 287.194C377.491 287.089 379.165 287.319 380.745 287.871C382.325 288.423 383.779 289.286 385.02 290.408C386.262 291.53 387.266 292.889 387.974 294.405V294.405Z" fill="#9E616A"/>
<path d="M415.412 623.676L427.548 621.225L424.075 572.205L406.163 575.822L415.412 623.676Z" fill="#9E616A"/>
<path d="M411.534 620.251L435.434 615.423L435.435 615.423C437.438 615.014 439.502 615.015 441.504 615.425C443.506 615.835 445.405 616.646 447.086 617.809C450.534 620.173 452.904 623.808 453.675 627.918L453.773 628.424L414.641 636.328L411.534 620.251Z" fill="#2F2E41"/>
<path d="M372.864 630.858H385.235L391.12 582.079H372.862L372.864 630.858Z" fill="#9E616A"/>
<path d="M369.709 626.729L394.071 626.728H394.072C396.12 626.727 398.148 627.137 400.034 627.936C401.92 628.735 403.626 629.905 405.05 631.377C407.983 634.374 409.617 638.406 409.598 642.6V643.116L369.71 643.117L369.709 626.729Z" fill="#2F2E41"/>
<path d="M205.091 526.19C191.359 526.183 180.233 514.798 180.24 500.761C180.24 497.376 180.904 494.025 182.194 490.896L185.855 492.479C183.689 497.672 183.641 503.507 185.722 508.735C187.804 513.963 191.849 518.168 196.993 520.45C199.49 521.528 202.177 522.097 204.897 522.124C207.617 522.152 210.315 521.637 212.834 520.61L214.309 524.385C211.384 525.581 208.252 526.195 205.091 526.19V526.19Z" fill="#3F3D56"/>
<path d="M243.362 525.682H212.546V517.553L237.397 510.439L243.362 525.682Z" fill="#3F3D56"/>
<path d="M232.427 517.552H313.939C313.988 522.084 312.236 526.45 309.067 529.689C305.898 532.929 301.572 534.777 297.04 534.828H249.326C244.794 534.777 240.468 532.929 237.299 529.689C234.13 526.45 232.378 522.084 232.427 517.552Z" fill="#3F3D56"/>
<path d="M321.625 527.831H231.166C227.979 527.76 224.945 526.445 222.716 524.165C220.486 521.886 219.238 518.825 219.238 515.636C219.238 512.448 220.486 509.386 222.716 507.107C224.945 504.828 227.979 503.512 231.166 503.442H321.625C324.812 503.512 327.846 504.828 330.075 507.107C332.305 509.386 333.553 512.448 333.553 515.636C333.553 518.825 332.305 521.886 330.075 524.165C327.846 526.445 324.812 527.76 321.625 527.831V527.831Z" fill="#CACACA"/>
<path d="M380.038 339.205L379.865 347.418L379.098 384.307C379.076 386.748 378.572 389.16 377.616 391.406C376.661 393.652 375.272 395.688 373.529 397.397C371.786 399.105 369.724 400.454 367.46 401.365C365.195 402.277 362.773 402.733 360.333 402.708C355.839 402.605 351.542 400.84 348.273 397.754L296.856 348.303C294.821 346.389 293.222 344.058 292.17 341.469C291.118 338.88 290.637 336.095 290.761 333.303C290.884 330.512 291.609 327.78 292.886 325.294C294.162 322.808 295.961 320.628 298.157 318.901C301.857 316.003 306.522 314.623 311.202 315.043C315.883 315.462 320.228 317.649 323.354 321.158L357.311 360.217L360.573 335.672L380.038 339.205Z" fill="#E6E6E6"/>
<path d="M392.666 610.785L368.358 613.044L355.099 514.775C311.393 522.292 270.16 524.699 234.496 515.606C228.641 514.06 223.63 510.272 220.545 505.061C217.46 499.85 216.549 493.635 218.01 487.758C218.149 487.181 218.309 486.61 218.492 486.045C222.76 473.022 230.28 459.067 239.083 444.744L297.643 466.205L299.853 475.241L362.315 467.158C365.333 466.797 368.392 467.037 371.317 467.864C374.241 468.692 376.973 470.089 379.355 471.977C381.737 473.865 383.722 476.205 385.195 478.864C386.668 481.522 387.6 484.446 387.938 487.466C388.022 488.144 388.077 488.825 388.103 489.509L392.666 610.785Z" fill="#2F2E41"/>
<path d="M429.622 590.091L405.314 592.35L361.239 502.21C317.533 509.727 276.301 512.135 240.637 503.042C234.782 501.496 229.77 497.708 226.685 492.497C223.601 487.286 222.69 481.07 224.151 475.193C224.289 474.616 224.45 474.045 224.632 473.481C228.9 460.458 236.42 446.502 245.223 432.179L313.175 437.897L305.994 462.676L368.456 454.594C371.473 454.233 374.533 454.473 377.457 455.3C380.382 456.127 383.114 457.525 385.496 459.412C387.877 461.3 389.862 463.641 391.335 466.299C392.808 468.957 393.741 471.881 394.079 474.901C394.163 475.58 394.218 476.26 394.243 476.944L429.622 590.091Z" fill="#2F2E41"/>
<path d="M315.087 300.879C331.563 300.879 344.92 287.225 344.92 270.382C344.92 253.538 331.563 239.884 315.087 239.884C298.611 239.884 285.255 253.538 285.255 270.382C285.255 287.225 298.611 300.879 315.087 300.879Z" fill="#9E616A"/>
<path d="M349.154 320.564C348.857 321.108 348.783 321.746 348.947 322.343C349.11 322.941 349.499 323.451 350.032 323.768C350.83 323.867 369.576 335.957 370.111 334.573C370.407 334.486 370.683 334.34 370.922 334.145C371.161 333.95 371.359 333.708 371.503 333.435L401.673 276.961C401.838 276.651 401.934 276.309 401.953 275.958C401.971 275.608 401.913 275.257 401.781 274.932C402.615 273.477 380.984 267.896 380.246 267.459C379.741 267.305 379.198 267.331 378.71 267.534C378.222 267.736 377.82 268.102 377.573 268.569L349.154 320.564Z" fill="#3F3D56"/>
<path d="M397.34 275.77C397.34 275.77 379.235 270.674 379.54 270.457C379.049 270.437 378.06 269.729 377.745 270.458L350.874 319.986C349.718 321.066 368.712 329.885 368.873 330.409C370.373 331.354 396.902 276.975 397.72 276.696C397.8 276.546 397.818 276.37 397.77 276.207C397.722 276.044 397.613 275.906 397.465 275.822C397.425 275.801 397.383 275.783 397.34 275.77V275.77Z" fill="#00BFA6"/>
<path d="M331.784 317.705C332.051 317.025 332.228 316.311 332.308 315.584C332.556 313.463 331.956 311.33 330.638 309.65C329.32 307.97 327.391 306.879 325.271 306.616L311.402 305.058C310.353 304.951 309.293 305.052 308.283 305.356C307.273 305.66 306.334 306.161 305.518 306.83C304.703 307.498 304.028 308.322 303.532 309.252C303.036 310.183 302.729 311.202 302.628 312.252C302.425 314.113 302.861 315.988 303.866 317.568C296.755 318.35 290.029 321.196 284.518 325.756C279.006 330.316 274.95 336.39 272.851 343.229C259.148 368.697 249.284 398.154 244.643 433.046L306.217 462.286L329.668 412.126L334.388 404.721C335.307 403.743 336.185 402.767 337.018 401.774C341.875 396.28 345.772 390.007 348.543 383.217C350.476 378.351 351.612 373.205 351.907 367.978C352.847 351.256 345.003 334.497 331.784 317.705Z" fill="#E4E4E4"/>
<path opacity="0.2" d="M348.544 383.217C345.771 390.006 341.875 396.28 337.018 401.774C336.186 402.767 335.307 403.743 334.387 404.721L329.668 412.125C312.272 399.086 298.177 347.744 298.177 347.744L317.805 343.926L348.544 383.217Z" fill="black"/>
<path d="M360.427 303.728C358.708 306.681 358.209 310.187 359.036 313.502C359.863 316.816 361.951 319.677 364.855 321.476C365.451 321.832 366.076 322.139 366.723 322.392L365.333 368.123L385.137 355.657L383.42 314.141C384.263 311.378 384.167 308.414 383.148 305.711C382.129 303.009 380.244 300.72 377.787 299.201C376.356 298.335 374.766 297.765 373.111 297.524C371.456 297.284 369.769 297.377 368.151 297.799C366.533 298.221 365.015 298.963 363.689 299.982C362.362 301 361.253 302.274 360.427 303.728V303.728Z" fill="#9E616A"/>
<path d="M363.592 350.861L385.371 353.958L384.434 399.058C384.38 402.275 383.504 405.425 381.89 408.208C380.275 410.992 377.975 413.316 375.209 414.96C371.83 416.948 367.896 417.784 364.001 417.342C360.105 416.9 356.459 415.203 353.612 412.508L302.195 363.053C298.578 359.621 296.413 354.933 296.145 349.954C295.878 344.975 297.529 340.082 300.759 336.283V336.283C302.357 334.391 304.319 332.84 306.528 331.721C308.737 330.602 311.148 329.938 313.619 329.769C316.09 329.6 318.569 329.929 320.91 330.736C323.251 331.543 325.406 332.813 327.247 334.469C327.755 334.923 328.239 335.405 328.695 335.911L362.646 374.968L363.592 350.861Z" fill="#E6E6E6"/>
<path d="M185.44 502.426C180.377 502.363 175.545 500.296 172.005 496.676C168.464 493.057 166.504 488.181 166.553 483.118V374.384C166.498 371.869 166.945 369.368 167.869 367.028C168.794 364.688 170.176 362.556 171.935 360.757C173.695 358.959 175.795 357.53 178.114 356.554C180.434 355.579 182.924 355.076 185.44 355.076C187.956 355.076 190.447 355.579 192.766 356.554C195.085 357.53 197.185 358.959 198.945 360.757C200.704 362.556 202.086 364.688 203.011 367.028C203.935 369.368 204.382 371.869 204.327 374.384V483.118C204.376 488.181 202.416 493.057 198.875 496.676C195.335 500.296 190.503 502.363 185.44 502.426V502.426Z" fill="#CACACA"/>
<path d="M303.999 629.906H281.136V530.371H273.183V629.906H250.32C246.855 629.945 243.547 631.358 241.123 633.836C238.7 636.313 237.36 639.652 237.398 643.117V643.117H316.921V643.117C316.959 639.652 315.619 636.313 313.196 633.836C310.772 631.358 307.464 629.945 303.999 629.906V629.906Z" fill="#3F3D56"/>
<path d="M341.032 235.822C334.658 232.072 326.899 232.063 319.545 232.157C314.217 232.225 308.888 232.293 303.56 232.36C297.093 232.443 290.266 232.626 284.757 236.09C279.247 239.554 275.909 247.536 279.547 253.004C268.728 243.394 252.526 241.876 238.965 246.617C232.329 248.937 226.049 252.702 221.542 258.195C216.646 264.162 214.097 271.845 213.072 279.563C212.047 287.281 212.448 295.113 212.849 302.891C213.102 307.781 213.657 313.297 217.421 316.326C220.894 319.12 225.983 318.698 230.016 316.851C237.049 313.631 241.912 306.881 245.546 299.934C249.181 292.987 251.952 285.517 256.478 279.14C261.004 272.764 267.831 267.43 275.537 267.338C270.297 274.939 269.341 285.986 274.817 293.41C278.756 298.749 285.328 301.521 291.832 302.225C298.337 302.929 304.883 301.81 311.333 300.695C315.699 299.939 320.835 298.552 322.28 294.273C323.698 290.076 320.659 285.838 319.359 281.602C316.85 273.426 321.998 263.654 330.056 261.297L329.399 260.649C336.072 261.601 344.064 260.718 347.617 254.866C351.495 248.478 347.406 239.572 341.032 235.822Z" fill="#2F2E41"/>
<path d="M983.217 30.666H409.099C408.876 30.6616 408.663 30.5699 408.507 30.4107C408.351 30.2514 408.263 30.0372 408.263 29.8142C408.263 29.5911 408.351 29.377 408.507 29.2177C408.663 29.0584 408.876 28.9667 409.099 28.9623H983.217C983.44 28.9667 983.652 29.0584 983.809 29.2177C983.965 29.377 984.052 29.5911 984.052 29.8142C984.052 30.0372 983.965 30.2514 983.809 30.4107C983.652 30.5699 983.44 30.6616 983.217 30.666V30.666Z" fill="#CACACA"/>
<path d="M427.854 18.7403C432.916 18.7403 437.02 14.5452 437.02 9.37016C437.02 4.19516 432.916 0 427.854 0C422.791 0 418.688 4.19516 418.688 9.37016C418.688 14.5452 422.791 18.7403 427.854 18.7403Z" fill="#3F3D56"/>
<path d="M459.518 18.7403C464.58 18.7403 468.684 14.5452 468.684 9.37016C468.684 4.19516 464.58 0 459.518 0C454.455 0 450.352 4.19516 450.352 9.37016C450.352 14.5452 454.455 18.7403 459.518 18.7403Z" fill="#3F3D56"/>
<path d="M491.182 18.7403C496.244 18.7403 500.348 14.5452 500.348 9.37016C500.348 4.19516 496.244 0 491.182 0C486.119 0 482.016 4.19516 482.016 9.37016C482.016 14.5452 486.119 18.7403 491.182 18.7403Z" fill="#3F3D56"/>
<path d="M964.245 5.73143H941.747C941.302 5.7216 940.878 5.53779 940.567 5.21936C940.255 4.90093 940.081 4.47319 940.081 4.02776C940.081 3.58232 940.255 3.15459 940.567 2.83617C940.878 2.51774 941.302 2.33393 941.747 2.3241H964.245C964.691 2.33393 965.115 2.51774 965.426 2.83617C965.738 3.15459 965.912 3.58232 965.912 4.02776C965.912 4.47319 965.738 4.90093 965.426 5.21936C965.115 5.53779 964.691 5.7216 964.245 5.73143V5.73143Z" fill="#3F3D56"/>
<path d="M964.245 12.1202H941.747C941.302 12.1104 940.878 11.9266 940.567 11.6081C940.255 11.2897 940.081 10.862 940.081 10.4165C940.081 9.9711 940.255 9.54336 940.567 9.22493C940.878 8.9065 941.302 8.72269 941.747 8.71286H964.245C964.691 8.72269 965.115 8.9065 965.426 9.22493C965.738 9.54336 965.912 9.9711 965.912 10.4165C965.912 10.862 965.738 11.2897 965.426 11.6081C965.115 11.9266 964.691 12.1104 964.245 12.1202V12.1202Z" fill="#3F3D56"/>
<path d="M964.245 18.5089H941.747C941.302 18.4991 940.878 18.3153 940.567 17.9969C940.255 17.6784 940.081 17.2507 940.081 16.8053C940.081 16.3598 940.255 15.9321 940.567 15.6137C940.878 15.2952 941.302 15.1114 941.747 15.1016H964.245C964.691 15.1114 965.115 15.2952 965.426 15.6137C965.738 15.9321 965.912 16.3598 965.912 16.8053C965.912 17.2507 965.738 17.6784 965.426 17.9969C965.115 18.3153 964.691 18.4991 964.245 18.5089V18.5089Z" fill="#3F3D56"/>
<path d="M870.714 299.59H499.475C497.632 299.568 495.874 298.815 494.585 297.498C493.296 296.18 492.583 294.405 492.601 292.563V126.013C492.583 124.17 493.296 122.395 494.585 121.078C495.874 119.76 497.632 119.007 499.475 118.985H870.714C872.557 119.007 874.316 119.76 875.605 121.078C876.893 122.395 877.607 124.17 877.589 126.013V292.563C877.607 294.405 876.893 296.18 875.605 297.498C874.316 298.815 872.557 299.568 870.714 299.59V299.59Z" fill="#00BFA6"/>
<path d="M575.078 177.037C573.831 177.064 572.644 177.579 571.772 178.471C570.899 179.363 570.411 180.561 570.411 181.808C570.411 183.056 570.899 184.254 571.772 185.146C572.644 186.037 573.831 186.552 575.078 186.58H795.111C796.357 186.55 797.542 186.034 798.412 185.143C799.283 184.251 799.77 183.054 799.77 181.808C799.77 180.562 799.283 179.366 798.412 178.474C797.542 177.582 796.357 177.067 795.111 177.037L575.078 177.037Z" fill="white"/>
<path d="M575.078 204.684C573.832 204.714 572.648 205.229 571.777 206.121C570.907 207.012 570.419 208.209 570.419 209.455C570.419 210.701 570.907 211.898 571.777 212.79C572.648 213.681 573.832 214.197 575.078 214.227H795.111C796.357 214.197 797.542 213.681 798.413 212.79C799.283 211.898 799.77 210.701 799.77 209.455C799.77 208.209 799.283 207.012 798.413 206.121C797.542 205.229 796.357 204.714 795.111 204.684H575.078Z" fill="white"/>
<path d="M575.078 231.996C573.831 232.023 572.644 232.538 571.772 233.43C570.899 234.322 570.411 235.52 570.411 236.767C570.411 238.015 570.899 239.213 571.772 240.104C572.644 240.996 573.831 241.511 575.078 241.539H669.759C671.006 241.511 672.193 240.996 673.066 240.104C673.938 239.213 674.427 238.015 674.427 236.767C674.427 235.52 673.938 234.322 673.066 233.43C672.193 232.538 671.006 232.023 669.759 231.996H575.078Z" fill="white"/>
<path d="M644.625 643.915H1.18361C0.867123 643.909 0.565854 643.778 0.344391 643.552C0.122928 643.326 -0.00109863 643.022 -0.00109863 642.705C-0.00109863 642.389 0.122928 642.085 0.344391 641.859C0.565854 641.632 0.867123 641.502 1.18361 641.495H644.625C644.942 641.502 645.243 641.632 645.464 641.859C645.686 642.085 645.81 642.389 645.81 642.705C645.81 643.022 645.686 643.326 645.464 643.552C645.243 643.778 644.942 643.909 644.625 643.915V643.915Z" fill="#CACACA"/>
<circle cx="873" cy="301" r="25" fill="#2F2E41"/>
<line x1="872.5" y1="313.02" x2="872.5" y2="288" stroke="white"/>
<line x1="885.51" y1="301.01" x2="860.49" y2="301.01" stroke="white"/>
</g>
<defs>
<clipPath id="clip0">
<rect width="984.05" height="643.915" fill="white"/>
</clipPath>
</defs>
</svg>
