<?xml version="1.0" standalone="yes"?>
<svg xmlns="http://www.w3.org/2000/svg" width="137" height="138">
<path style="fill:#64705f; stroke:none;" d="M70 91C68.3664 92.8857 66.7618 94.6134 65.8897 97.0046C63.248 104.248 69.5574 111.213 76.8951 107.424C81.6926 104.946 80.6988 100.367 83.0046 96.375C85.0434 92.8451 88.808 89.9312 83 88C83 83.2957 83.8812 77.5864 82.6821 73.0193C82.0891 70.7607 80.0088 67.913 77.3125 69.1759C74.0653 70.6969 73.1029 86.9895 66.4321 81.534C63.7061 79.3046 63.246 74.2363 63.5285 71C64.2349 62.9112 68.2417 53.9781 77 53C74.8693 57.4585 70.4952 57.9357 68.0471 61.5548C66.9232 63.2161 67.4239 65.5458 69.3187 66.3565C80.3869 71.0921 91.2661 48.6736 76.9992 46.2323C54.3395 42.3547 45.1389 90.3991 70 91z"/>
</svg>
