<svg width="912" height="379" viewBox="0 0 912 379" fill="none" xmlns="http://www.w3.org/2000/svg">
<path d="M912 33H650L687 379H874L912 33Z" fill="#5FE14A"/>
<path d="M671.08 0L650 33H912L894.935 0H671.08Z" fill="#327428"/>
<path d="M731.187 238.702C729.63 241.526 728.391 245.775 728.391 248.452C728.391 249.073 728.391 249.864 728.544 250.96L709.087 217.163C708.464 216.067 708 214.494 708 213.076C708 211.657 708.464 209.931 709.087 208.833L718.428 192.326L708 186.357L741.933 185.723L758.429 215.746L747.849 209.616L731.187 238.702ZM746.133 143.442C749.088 138.249 753.917 135.419 759.827 135.419C766.213 135.419 771.195 138.41 774.772 144.533L780.065 153.492L761.695 185.569L731.969 168.118L746.133 143.442ZM748.306 265.896C739.435 265.896 732.121 258.508 732.121 249.548C732.121 247.032 733.214 242.784 734.771 240.114L739.746 231.155H776.64V265.896H748.306V265.896ZM777.886 142.492C775.554 138.41 772.44 135.573 768.704 134H806.989C810.414 134 813.058 135.419 814.621 138.095L824.114 154.442L834.384 148.306L817.881 178.181L784.113 177.7L794.541 171.731L777.886 142.492ZM836.881 231.47C841.545 231.47 845.441 230.212 848.707 227.702L829.402 261.652C827.845 264.322 825.05 265.895 821.782 265.895H803.564V278L786.134 248.606L803.564 219.204V231.47H836.881V231.47ZM851.814 203.172C853.218 205.688 854 208.358 854 211.189C854 216.85 850.416 222.824 845.441 225.648C843.102 226.913 839.83 227.702 836.57 227.702H826.288L807.93 195.625L837.656 178.489L851.814 203.172Z" fill="white"/>
<path d="M587 33H325L362 379H549L587 33Z" fill="#E7EB34"/>
<path d="M346.08 0L325 33H587L569.935 0H346.08Z" fill="#999B24"/>
<path d="M406.187 238.702C404.63 241.526 403.391 245.775 403.391 248.452C403.391 249.073 403.391 249.864 403.544 250.96L384.087 217.163C383.464 216.067 383 214.494 383 213.076C383 211.657 383.464 209.931 384.087 208.833L393.428 192.326L383 186.357L416.933 185.723L433.429 215.746L422.849 209.616L406.187 238.702ZM421.133 143.442C424.088 138.249 428.917 135.419 434.827 135.419C441.213 135.419 446.195 138.41 449.772 144.533L455.065 153.492L436.695 185.569L406.969 168.118L421.133 143.442ZM423.306 265.896C414.435 265.896 407.121 258.508 407.121 249.548C407.121 247.032 408.214 242.784 409.771 240.114L414.746 231.155H451.64V265.896H423.306V265.896ZM452.886 142.492C450.554 138.41 447.44 135.573 443.704 134H481.989C485.414 134 488.058 135.419 489.621 138.095L499.114 154.442L509.384 148.306L492.881 178.181L459.113 177.7L469.541 171.731L452.886 142.492ZM511.881 231.47C516.545 231.47 520.441 230.212 523.707 227.702L504.402 261.652C502.845 264.322 500.05 265.895 496.782 265.895H478.564V278L461.134 248.606L478.564 219.204V231.47H511.881V231.47ZM526.814 203.172C528.218 205.688 529 208.358 529 211.189C529 216.85 525.416 222.824 520.441 225.648C518.102 226.913 514.83 227.702 511.57 227.702H501.288L482.93 195.625L512.656 178.489L526.814 203.172Z" fill="white"/>
<path d="M262 33H0L37 379H224L262 33Z" fill="#4A74E1"/>
<path d="M21.0805 0L0 33H262L244.935 0H21.0805Z" fill="#355098"/>
<path d="M81.1872 238.702C79.6304 241.526 78.3913 245.775 78.3913 248.452C78.3913 249.073 78.3913 249.864 78.5437 250.96L59.0867 217.163C58.4639 216.067 58 214.494 58 213.076C58 211.657 58.4639 209.931 59.0867 208.833L68.4276 192.326L58 186.357L91.9327 185.723L108.429 215.746L97.8486 209.616L81.1872 238.702ZM96.1329 143.442C99.0877 138.249 103.917 135.419 109.827 135.419C116.213 135.419 121.195 138.41 124.772 144.533L130.065 153.492L111.695 185.569L81.9687 168.118L96.1329 143.442ZM98.306 265.896C89.4352 265.896 82.1212 258.508 82.1212 249.548C82.1212 247.032 83.2141 242.784 84.7709 240.114L89.7463 231.155H126.64V265.896H98.306V265.896ZM127.886 142.492C125.554 138.41 122.44 135.573 118.704 134H156.989C160.414 134 163.058 135.419 164.621 138.095L174.114 154.442L184.384 148.306L167.881 178.181L134.113 177.7L144.541 171.731L127.886 142.492ZM186.881 231.47C191.545 231.47 195.441 230.212 198.707 227.702L179.402 261.652C177.845 264.322 175.05 265.895 171.782 265.895H153.564V278L136.134 248.606L153.564 219.204V231.47H186.881V231.47ZM201.814 203.172C203.218 205.688 204 208.358 204 211.189C204 216.85 200.416 222.824 195.441 225.648C193.102 226.913 189.83 227.702 186.57 227.702H176.288L157.93 195.625L187.656 178.489L201.814 203.172Z" fill="white"/>
</svg>
